<?xml version="1.0" standalone="no"?>
<!DOCTYPE svg PUBLIC "-//W3C//DTD SVG 20010904//EN"
 "http://www.w3.org/TR/2001/REC-SVG-20010904/DTD/svg10.dtd">
<svg version="1.0" xmlns="http://www.w3.org/2000/svg"
 width="260.000000pt" height="260.000000pt" viewBox="0 0 260.000000 260.000000"
 preserveAspectRatio="xMidYMid meet">
<metadata>
Created by potrace 1.14, written by Peter Selinger 2001-2017
</metadata>
<g transform="translate(0.000000,260.000000) scale(0.100000,-0.100000)"
fill="#000000" stroke="none">
<path d="M1240 2292 c-61 -7 -177 -35 -197 -48 -31 -20 -38 -83 -49 -434 -3
-107 -7 -215 -9 -240 -2 -25 -6 -97 -10 -160 -4 -63 -9 -135 -11 -160 -2 -25
-7 -180 -10 -345 -4 -165 -9 -303 -13 -307 -3 -4 -54 -9 -113 -12 l-106 -6 3
42 c6 75 17 182 20 199 6 32 22 249 40 544 10 165 23 491 26 661 2 132 -6 159
-58 198 -35 26 -115 26 -151 -1 -56 -42 -60 -60 -67 -288 -3 -115 -8 -239 -10
-275 -2 -36 -7 -125 -10 -199 -3 -73 -8 -158 -10 -190 -2 -31 -6 -99 -10 -151
-12 -186 -20 -286 -30 -382 -15 -141 -17 -252 -5 -293 17 -60 66 -108 126
-126 69 -19 277 -17 434 5 14 2 52 7 85 10 33 4 67 9 75 11 8 3 33 7 55 11 69
10 198 42 260 65 33 11 110 38 170 58 154 53 210 83 314 171 196 164 203 376
17 519 -28 22 -85 58 -127 80 l-75 41 66 67 c42 43 77 92 97 133 47 98 53 123
58 241 8 153 -35 259 -146 369 -100 97 -227 167 -351 191 -47 9 -207 9 -278 1z
m310 -327 c61 -32 103 -135 103 -254 -1 -78 -19 -125 -67 -172 -40 -40 -68
-54 -135 -68 -52 -11 -81 -25 -81 -40 0 -4 10 -17 21 -30 l21 -23 -53 4 c-53
3 -54 4 -53 33 2 86 16 320 19 325 1 3 6 37 9 75 11 123 14 132 53 148 50 20
127 21 163 2z m-20 -840 c98 -19 294 -105 343 -150 43 -41 36 -69 -30 -131
-93 -86 -239 -150 -314 -138 -23 4 -70 -3 -132 -20 -54 -15 -124 -29 -157 -32
l-60 -5 0 28 c1 20 9 33 33 48 54 34 73 115 79 344 l2 73 101 -5 c55 -3 116
-8 135 -12z"/>
</g>
</svg>
